<svg xmlns="http://www.w3.org/2000/svg" style="isolation:isolate" viewBox="0 0 512 1024" width="512pt" height="1024pt"><defs><clipPath id="a"><path d="M0 0h512v1024H0z"/></clipPath></defs><g clip-path="url(#a)"><mask id="b" x="-200%" y="-200%" width="400%" height="400%"><rect x="-200%" y="-200%" width="400%" height="400%" fill="#fff"/><path d="M32 256h448v768H32V256z"/></mask><path d="M32 256h448v768H32V256z" fill="none" mask="url(#b)" stroke-width="64" stroke="#483E3E" stroke-linecap="square" stroke-miterlimit="2"/><path d="M32 256h448v768H32V256z" fill="none"/><ellipse cx="256" cy="256" rx="242" ry="240" fill="#FFFCE6" stroke-width="32" stroke="#483E3E" stroke-miterlimit="3"/><path d="M30 256h452v771.012H30V256z" fill="#FFFCE6"/><path d="M30 340h452v64.235H30V340zm0 160.588h452v64.236H30v-64.236zm0 160.588h452v64.236H30v-64.236zm0 160.589h452V886H30v-64.235z" fill="#BF9C96"/></g></svg>