<svg xmlns="http://www.w3.org/2000/svg" style="isolation:isolate" viewBox="0 0 1024 1024" width="1024pt" height="1024pt"><defs><clipPath id="a"><path d="M0 0h1024v1024H0z"/></clipPath></defs><g clip-path="url(#a)"><clipPath id="b"><path fill="#FFF" d="M0 0h1024v1024H0z"/></clipPath><g clip-path="url(#b)"><path fill="#FFFCE6" stroke-width="8" stroke="#483E3E" stroke-opacity="100" stroke-linecap="square" stroke-miterlimit="2" d="M4 326h1016v694H4z"/><mask id="c" x="-200%" y="-200%" width="400%" height="400%"><rect x="-200%" y="-200%" width="400%" height="400%" fill="#fff"/><path d="M347 329L7 651V7l340 322z"/></mask><path d="M347 329L7 651V7l340 322z" fill="#BF9C96" mask="url(#c)" stroke-width="16" stroke="#483E3E" stroke-opacity="100" stroke-linecap="square" stroke-miterlimit="3"/><path d="M347 329L7 651V7l340 322z" fill="#BF9C96"/><mask id="d" x="-200%" y="-200%" width="400%" height="400%"><rect x="-200%" y="-200%" width="400%" height="400%" fill="#fff"/><path d="M669 329L1017 7v644L669 329z"/></mask><path d="M669 329L1017 7v644L669 329z" fill="#BF9C96" mask="url(#d)" stroke-width="16" stroke="#483E3E" stroke-opacity="100" stroke-linecap="square" stroke-miterlimit="3"/><path d="M669 329L1017 7v644L669 329z" fill="#BF9C96"/><ellipse cx="306.5" cy="613.5" rx="115" ry="112.5" fill="#FFF" stroke-width="8" stroke="#483E3E" stroke-opacity="100" stroke-linecap="square" stroke-miterlimit="3"/><ellipse cx="306.5" cy="623.283" rx="40" ry="48.913" fill="#483E3E"/><ellipse cx="717.5" cy="613.5" rx="115" ry="112.5" fill="#FFF" stroke-width="8" stroke="#483E3E" stroke-opacity="100" stroke-linecap="square" stroke-miterlimit="3"/><ellipse cx="717.5" cy="623.283" rx="40" ry="48.913" fill="#483E3E"/><path fill="#FFFCE6" d="M189.5 495.515h645v98.207h-645z"/><path fill="#483E3E" d="M189.5 588.21h234v8h-234zM600.5 588.21h234v8h-234z"/><g fill="#BF9C96"><path d="M400 329h20v100h-20zM604 329h20v100h-20zM470 329h20v100h-20zM540 329h20v100h-20z"/></g><g><ellipse cx="512" cy="821" rx="93" ry="64.844" fill="#FFA5A5" stroke-width="8" stroke="#483E3E" stroke-opacity="100" stroke-linecap="square" stroke-miterlimit="3"/><path fill="#FFFCE6" d="M395 746h234v70H395z"/><ellipse cx="512" cy="815.5" rx="11" ry="10.5" fill="#FFA5A5"/><path d="M564 852l-19-35h38l-19 35z" fill="#FFF"/><g fill="#483E3E"><path d="M416.143 821v-8h79.595v8z"/><path d="M394.865 799.77l5.625-5.657 21.093 21.213-5.625 5.657zM495.756 821.018l-5.625-5.658 21.093-21.212 5.625 5.657z"/><path d="M395 779.63h7.96v20H395z"/></g><g fill="#483E3E"><path d="M527.83 821v-8h79.843v8z"/><path d="M506.32 799.809l5.641-5.658 21.156 21.215-5.642 5.658zM607.732 820.875l-5.642-5.658 21.156-21.215 5.641 5.658z"/><path d="M621.016 779.63H629v20h-7.984z"/></g></g><g fill="#483E3E"><path d="M844.54 769.245l131.636-47.893 3.89 10.69-131.637 47.893zM844 800.252h140v11.37H844z"/><g><path d="M47.856 721.43l131.637 47.893-3.89 10.69-131.636-47.892zM44 800.252h140v11.37H44z"/></g></g><g fill="#FFA5A5"><ellipse cx="745" cy="781" rx="75" ry="30"/><ellipse cx="279" cy="781" rx="75" ry="30"/></g><ellipse cx="514" cy="731" rx="30" ry="10" fill="#FFA5A5" stroke-width="4" stroke="#483E3E" stroke-opacity="100" stroke-linecap="square" stroke-miterlimit="3"/><g><mask id="e" x="-200%" y="-200%" width="400%" height="400%"><rect x="-200%" y="-200%" width="400%" height="400%" fill="#fff"/><path d="M349.605 330.551l-100-15.051 67.454 70 32.546-54.949z"/></mask><path d="M349.605 330.551l-100-15.051 67.454 70 32.546-54.949z" fill="#FFFCE6" mask="url(#e)" stroke-width="16" stroke="#483E3E" stroke-opacity="100" stroke-linecap="square"/><path d="M349.605 330.551l-100-15.051 67.454 70 32.546-54.949z" fill="#FFFCE6"/><mask id="f" x="-200%" y="-200%" width="400%" height="400%"><rect x="-200%" y="-200%" width="400%" height="400%" fill="#fff"/><path d="M306.105 368.051l-100-15.051 67.454 70 32.546-54.949z"/></mask><path d="M306.105 368.051l-100-15.051 67.454 70 32.546-54.949z" fill="#FFFCE6" mask="url(#f)" stroke-width="16" stroke="#483E3E" stroke-opacity="100" stroke-linecap="square"/><path d="M306.105 368.051l-100-15.051 67.454 70 32.546-54.949z" fill="#FFFCE6"/><path fill="#FFFCE6" d="M233.08 447.907l125.766-118.176 33.912 36.09-125.767 118.176z"/></g><g><mask id="g" x="-200%" y="-200%" width="400%" height="400%"><rect x="-200%" y="-200%" width="400%" height="400%" fill="#fff"/><path d="M667.008 330.551l100-15.051-67.454 70-32.546-54.949z"/></mask><path d="M667.008 330.551l100-15.051-67.454 70-32.546-54.949z" fill="#FFFCE6" mask="url(#g)" stroke-width="16" stroke="#483E3E" stroke-opacity="100" stroke-linecap="square"/><path d="M667.008 330.551l100-15.051-67.454 70-32.546-54.949z" fill="#FFFCE6"/><mask id="h" x="-200%" y="-200%" width="400%" height="400%"><rect x="-200%" y="-200%" width="400%" height="400%" fill="#fff"/><path d="M710.508 368.051l100-15.051-67.454 70-32.546-54.949z"/></mask><path d="M710.508 368.051l100-15.051-67.454 70-32.546-54.949z" fill="#FFFCE6" mask="url(#h)" stroke-width="16" stroke="#483E3E" stroke-opacity="100" stroke-linecap="square"/><path d="M710.508 368.051l100-15.051-67.454 70-32.546-54.949z" fill="#FFFCE6"/><path fill="#FFFCE6" d="M657.392 329.943l126.989 116.809-33.52 36.44-126.988-116.808z"/></g></g></g></svg>